# xmcd CD database file
#
# Track frame offsets:
#	150
#	20619
#	39900
#	56964
#	81158
#	103035
#	121691
#	139738
#	160891
#	181503
#	197763
#	220969
#
# Disc length: 3143 seconds
#
# Revision: 7
# Processed by: cddbd v1.5.2PL0 Copyright (c) Steve Scherf et al.
# Submitted via: CDex 1.77
#
DISCID=9e0c450c
DTITLE=RED WARRIORS - RED SONGS best songs collection  DISC1
DYEAR=1989
DGENRE=Rock and Roll
TTITLE0=WILD CHERRY
TTITLE1=CASINO DRIVE
TTITLE2=DANCE MACABRE
TTITLE3=I AM THE WALRUS
TTITLE4=KING'S ROCK'N' ROLL
TTITLE5=FOOLISH GAMBLER
TTITLE6=BAD LACK BOOGIE
TTITLE7=MONKEY DANCIN'
TTITLE8=90's REVOLUTION
TTITLE9=SHOCK ME -Live-
TTITLE10=ROYAL STRAIGHT SLASH R&R
TTITLE11=OH, MY GOD
EXTD=YEAR: 1989
EXTT0=
EXTT1=
EXTT2=
EXTT3=
EXTT4=
EXTT5=
EXTT6=
EXTT7=
EXTT8=
EXTT9=
EXTT10=
EXTT11=
PLAYORDER=
